<!-- Generated by IcoMoon.io -->
<svg version="1.1" xmlns="http://www.w3.org/2000/svg" width="1024" height="1024" viewBox="0 0 1024 1024">
<title></title>
<g id="icomoon-ignore">
</g>
<path fill="#f3ba2f" d="M313.13 430.294l198.87-198.87 198.963 198.956 115.712-115.712-314.675-314.667-314.573 314.573 115.708 115.712zM0 512.001l115.715-115.732 115.708 115.708-115.715 115.715zM313.13 593.721l198.87 198.857 198.959-198.951 115.773 115.65-0.058 0.061-314.675 314.662-314.736-314.736 115.88-115.557zM792.576 512.050l115.715-115.715 115.708 115.708-115.712 115.715z"></path>
<path fill="#f3ba2f" d="M629.358 511.94h0.049l-117.407-117.416-117.477 117.456 0.164 0.167 117.314 117.33 117.472-117.481-0.107-0.058z"></path>
</svg>
