<?xml version="1.0" encoding="UTF-8"?>
<svg width="704px" height="128px" viewBox="0 0 704 128" version="1.1" xmlns="http://www.w3.org/2000/svg" xmlns:xlink="http://www.w3.org/1999/xlink">
    <title>PHOENIX_横版_白</title>
    <g id="页面-1" stroke="none" stroke-width="1" fill="none" fill-rule="evenodd">
        <g id="Phoenix-Logo-1-2" transform="translate(-816.000000, -592.000000)" fill="#FFFFFF">
            <path d="M907.204405,665.04476 L922.680411,699.694344 L907.204405,720 L891.610898,699.64198 L907.204405,665.04476 Z M834.163795,646.739531 L829.766,633.486 L902.868,656 L906.971778,665.04476 L834.163795,646.739531 Z M911.132,656 L984.234,633.486 L979.836205,646.739531 L907.028222,665.04476 L911.132,656 Z M827.55,626.808 L823.32,614.061 L897.137,643.371 L901.303,652.552 L827.55,626.808 Z M916.863,643.371 L990.68,614.061 L986.45,626.808 L912.697,652.552 L916.863,643.371 Z M907.028222,601.101955 L919.517631,617.455929 L907.028222,645.362361 L894.491401,617.50921 L907.028222,601.101955 Z M816,592 L891.1217,630.113123 L895.551,639.876 L821.202,607.676 L816,592 Z M922.8783,630.113123 L998,592 L992.798,607.676 L918.449,639.876 L922.8783,630.113123 Z M1073.1505,616.888889 C1080.01194,616.888889 1085.43769,618.962963 1089.42777,623.111111 C1093.41784,627.259259 1095.41288,632.888889 1095.41288,640 C1095.41288,645.259259 1094.36875,649.814815 1092.28048,653.666667 C1090.19222,657.518519 1087.47002,660.481481 1084.11388,662.555556 C1080.75775,664.62963 1077.10329,665.666667 1073.1505,665.666667 L1064.64829,665.666667 L1064.64829,693.666667 C1064.64829,694.037037 1064.46184,694.222222 1064.08893,694.222222 L1051.55936,694.222222 C1051.18645,694.222222 1051,694.037037 1051,693.666667 L1051.22374,617.333333 C1051.22374,617.037037 1051.3729,616.888889 1051.67123,616.888889 L1073.1505,616.888889 Z M1073.01706,630.222222 L1064.32386,630.333892 L1064.32386,652.444444 L1073.01706,652.444444 C1075.45337,652.444444 1077.62111,651.449411 1079.64077,649.078277 C1081.66043,646.707144 1082.08902,643.540622 1082.08902,640.160804 C1082.08902,636.780986 1081.2396,634.875116 1079.64077,633.013959 C1078.04194,631.152801 1075.83404,630.222222 1073.01706,630.222222 Z M1127.83315,694.222222 C1127.53782,694.222222 1127.39015,694.037037 1127.39015,693.666667 L1127.5009,617.333333 C1127.5009,617.037037 1127.68548,616.888889 1128.05465,616.888889 L1140.34786,616.888889 C1140.71703,616.888889 1140.90161,617.037037 1140.90161,617.333333 L1140.79086,647.555556 L1157.40331,647.555556 L1157.40331,617.333333 C1157.40331,617.037037 1157.55098,616.888889 1157.84631,616.888889 L1170.13953,616.888889 C1170.50869,616.888889 1170.69327,617.037037 1170.69327,617.333333 L1170.91477,693.666667 C1170.91477,694.037037 1170.73019,694.222222 1170.36102,694.222222 L1157.95706,694.222222 C1157.5879,694.222222 1157.40331,694.037037 1157.40331,693.666667 L1157.40331,661 L1140.79086,661 L1140.79086,693.666667 C1140.79086,694.037037 1140.6432,694.222222 1140.34786,694.222222 L1127.83315,694.222222 Z M1226.48625,696 C1222.49926,696 1218.86298,694.97722 1215.5774,692.93166 C1212.29183,690.886099 1209.6523,688.171083 1207.6588,684.786611 C1205.66531,681.402139 1204.66856,677.664342 1204.66856,673.573222 L1204.77931,638.203626 C1204.77931,634.112506 1205.7576,630.393305 1207.71418,627.046025 C1209.67075,623.698745 1212.31029,621.020921 1215.63278,619.012552 C1218.95527,617.004184 1222.57309,616 1226.48625,616 C1230.47323,616 1234.09106,617.004184 1237.33971,619.012552 C1240.58837,621.020921 1243.19099,623.698745 1245.14757,627.046025 C1247.10414,630.393305 1248.08243,634.112506 1248.08243,638.203626 L1248.19318,673.573222 C1248.19318,677.664342 1247.21489,681.402139 1245.25832,684.786611 C1243.30174,688.171083 1240.68066,690.886099 1237.39509,692.93166 C1234.10952,694.97722 1230.47323,696 1226.48625,696 Z M1227.31913,682.666667 C1229.56938,682.666667 1231.53835,681.751634 1233.22604,679.921569 C1234.91373,678.091503 1235.75758,676.018674 1235.75758,673.703081 L1235.64506,638.184874 C1235.64506,635.719888 1234.85747,633.628385 1233.2823,631.910364 C1231.70712,630.192344 1229.7194,629.333333 1227.31913,629.333333 C1224.99387,629.333333 1223.00614,630.173669 1221.35596,631.854342 C1219.70577,633.535014 1218.88068,635.645191 1218.88068,638.184874 L1218.88068,673.703081 C1218.88068,676.168067 1219.70577,678.278245 1221.35596,680.033613 C1223.00614,681.788982 1224.99387,682.666667 1227.31913,682.666667 Z M1283.28606,694.222222 C1282.98551,694.222222 1282.83523,694.037037 1282.83523,693.666667 L1282.94794,617.333333 C1282.94794,617.037037 1283.09822,616.888889 1283.39877,616.888889 L1319.5785,616.888889 C1319.87906,616.888889 1320.02934,617.074074 1320.02934,617.444444 L1320.02934,629.888889 C1320.02934,630.185185 1319.87906,630.333333 1319.5785,630.333333 L1296.47307,630.333333 L1296.47307,647.666667 L1319.5785,647.666667 C1319.87906,647.666667 1320.02934,647.814815 1320.02934,648.111111 L1320.14205,660.666667 C1320.14205,660.962963 1319.99177,661.111111 1319.69121,661.111111 L1296.47307,661.111111 L1296.47307,680.555556 L1319.69121,680.555556 C1319.99177,680.555556 1320.14205,680.740741 1320.14205,681.111111 L1320.14205,693.777778 C1320.14205,694.074074 1319.99177,694.222222 1319.69121,694.222222 L1283.28606,694.222222 Z M1355.78073,694.222222 C1355.19013,694.222222 1354.89483,693.962963 1354.89483,693.444444 L1354.78409,617.777778 C1354.78409,617.185185 1355.07939,616.888889 1355.66999,616.888889 L1365.63638,616.888889 L1384.35105,660.666667 L1383.79736,617.777778 C1383.79736,617.185185 1384.12958,616.888889 1384.794,616.888889 L1395.75703,616.888889 C1396.19998,616.888889 1396.42146,617.185185 1396.42146,617.777778 L1396.5322,693.555556 C1396.5322,694 1396.34763,694.222222 1395.97851,694.222222 L1386.23359,694.222222 L1367.07597,653.333333 L1367.85114,693.333333 C1367.85114,693.925926 1367.51892,694.222222 1366.8545,694.222222 L1355.78073,694.222222 Z M1433.49682,694.222222 C1433.13278,694.222222 1432.95076,694.037037 1432.95076,693.666667 L1433.05997,617.333333 C1433.05997,617.037037 1433.20559,616.888889 1433.49682,616.888889 L1445.72856,616.888889 C1446.01979,616.888889 1446.16541,617.037037 1446.16541,617.333333 L1446.27462,693.666667 C1446.27462,694.037037 1446.12901,694.222222 1445.83777,694.222222 L1433.49682,694.222222 Z M1509.35906,666.666667 L1519.9775,694.638272 C1519.98494,694.657868 1519.99057,694.67804 1519.99433,694.698542 L1520,694.760794 C1520,694.932771 1519.87399,695.075805 1519.70782,695.105467 L1519.64379,695.111111 L1506.1558,695.111111 C1506.02837,695.111111 1505.91242,695.044391 1505.84915,694.939065 L1505.82209,694.883315 L1502.23485,685.434578 L1509.35906,666.666667 Z M1518.76153,616.888889 C1518.95494,616.888889 1519.11174,617.045327 1519.11174,617.238304 C1519.11174,617.28003 1519.10425,617.321419 1519.08962,617.36051 L1490.41474,693.995013 C1490.36361,694.131642 1490.23281,694.222222 1490.08664,694.222222 L1476.8256,694.222222 C1476.63218,694.222222 1476.47538,694.065784 1476.47538,693.872807 C1476.47538,693.834477 1476.4817,693.796432 1476.49407,693.760191 L1505.17238,617.116098 C1505.22351,616.979469 1505.35431,616.888889 1505.50048,616.888889 L1518.76153,616.888889 Z M1491.08514,616.888889 C1491.21145,616.888889 1491.32637,616.954589 1491.38908,617.058305 L1491.41589,617.113203 L1494.21824,624.448479 C1494.24796,624.526283 1494.24796,624.611952 1494.21824,624.689755 L1487.40171,642.532017 C1487.36079,642.639109 1487.23877,642.693517 1487.12917,642.653541 C1487.07164,642.63256 1487.02627,642.588223 1487.00479,642.532016 L1477.38593,617.354499 C1477.37856,617.335202 1477.37299,617.315339 1477.36926,617.29515 L1477.36364,617.233851 C1477.36364,617.064502 1477.48853,616.923655 1477.65323,616.894447 L1477.71669,616.888889 L1491.08514,616.888889 Z" id="PHOENIX_横版_白"></path>
        </g>
    </g>
</svg>